<svg width="76" height="68" viewBox="0 0 76 68" fill="none" xmlns="http://www.w3.org/2000/svg">
<g id="Frame 113">
<g id="Group">
<path id="Vector" d="M47.3615 43.8989C46.5881 43.8989 45.8072 43.7308 45.0412 43.3945C44.888 43.3272 44.1893 42.9835 43.7522 42.7668C42.3361 42.0644 42.1194 41.956 42.2502 41.3395H42.2577C42.3361 40.9547 42.65 39.5461 43.939 33.7846L44.0735 33.1868L46.7749 33.0934C47.1934 30.1827 47.1187 28.6135 46.0538 26.1512L43.5504 26.6967L40.5651 18.1666L41.062 17.8229C42.9265 16.5263 44.6639 15.8687 46.2257 15.8687C46.7562 15.8687 47.2606 15.9472 47.7277 16.1041C51.2324 17.2699 52.0432 21.8805 53.3845 29.5251C53.7993 31.8828 53.8142 34.5393 53.4256 37.4089C53.2276 38.866 52.9287 40.0766 52.0918 41.2536C50.8812 42.9611 49.2035 43.8989 47.3615 43.8989Z" fill="white"/>
<path id="Vector_2" d="M46.2257 16.6609C46.8086 16.6609 47.2233 16.7692 47.4774 16.8552C50.53 17.8715 51.3221 22.3738 52.6037 29.6597C53.0408 32.1518 52.9773 34.8047 52.641 37.3005C52.4654 38.6008 52.2151 39.7068 51.4454 40.794C50.4179 42.2437 48.9719 43.1068 47.3616 43.1068C46.7152 43.1068 46.0426 42.9686 45.3589 42.6697C45.1347 42.5725 43.0236 41.5264 43.0274 41.5077L44.7162 33.964L47.4624 33.8706C48.0491 30.1342 47.9631 28.3557 46.5134 25.2433L44.0698 25.7739L41.5179 18.4768C43.6215 17.0084 45.187 16.6609 46.2257 16.6609ZM46.2257 15.0729C44.4995 15.0729 42.6089 15.7791 40.6062 17.169L39.6161 17.8565L40.0159 18.9961L42.5678 26.2932L43.0311 27.6196L44.4061 27.3207L45.5681 27.0666C46.2519 28.8564 46.3378 30.2164 46.0763 32.32L44.6602 32.3685L43.4346 32.4096L43.1656 33.609C41.7496 39.9309 41.5179 40.9696 41.4768 41.1527C41.204 42.3633 42.2465 42.8939 42.6351 43.0919C42.8406 43.1965 43.1171 43.3348 43.3973 43.473C43.4421 43.4954 44.4958 44.0185 44.72 44.1157C45.5868 44.493 46.4723 44.6873 47.3578 44.6873C49.4315 44.6873 51.3931 43.6 52.7382 41.702C53.6685 40.3905 54.0011 39.0753 54.2103 37.5023C54.6064 34.5506 54.5914 31.8156 54.1617 29.372C53.5041 25.6244 52.9811 22.6615 52.2002 20.3823C51.5986 18.6187 50.5038 16.1789 47.9706 15.3382C47.4288 15.1663 46.8385 15.0729 46.2257 15.0729Z" fill="#007BC2"/>
</g>
<g id="Group_2">
<path id="Vector_3" d="M56.4185 24.3765L56.2765 24.3204C56.2429 24.3055 56.2429 24.3055 49.3268 20.7746L48.7813 20.4944L49.3642 17.8565C47.4811 17.0719 46.0762 16.6497 44.4621 16.6497C43.8605 16.6497 43.2142 16.7057 42.4594 16.8253L42.3623 19.3847L33.3576 20.1469L33.1484 19.5827C31.807 15.9696 32.4049 13.8437 33.1447 12.7003C34.5906 10.4623 37.576 10.1596 40.3073 10.1596C42.3249 10.1596 44.7461 10.3502 47.5521 10.5669C49.9433 10.7537 52.514 11.4038 55.2004 12.4948C56.5604 13.0478 57.6589 13.6419 58.593 14.7441C60.5434 17.0495 60.663 19.8704 58.9106 22.1085C57.1284 24.3802 56.8743 24.3802 56.5791 24.3802H56.4185V24.3765Z" fill="white"/>
<path id="Vector_4" d="M40.3072 10.9517C42.2949 10.9517 44.6899 11.1385 47.4885 11.359C50.0105 11.557 52.5662 12.2819 54.8977 13.2309C56.112 13.7241 57.1208 14.2435 57.9802 15.2597C59.5868 17.1616 59.8783 19.5752 58.2791 21.619C58.1259 21.8133 56.5977 23.5881 56.5716 23.5881L49.6892 20.0722L50.2833 17.3895C47.8883 16.3545 46.3153 15.8613 44.462 15.8613C43.6288 15.8613 42.7396 15.9622 41.6896 16.1565L41.5962 18.6561L33.8919 19.3025C32.4982 15.5512 33.4099 13.7465 33.8097 13.1263C34.8932 11.4487 37.0566 10.9517 40.3072 10.9517ZM40.3072 9.36377C37.3629 9.36377 34.131 9.70751 32.4795 12.2669C31.6426 13.5634 30.9476 15.936 32.4048 19.8592L32.8233 20.9913L34.0264 20.8904L41.7307 20.2403L43.1319 20.1207L43.1842 18.7159L43.229 17.524C43.6737 17.4717 44.0809 17.4493 44.462 17.4493C45.6614 17.4493 46.7562 17.6846 48.4413 18.346L48.1349 19.7284L47.8696 20.9278L48.9643 21.4883C55.8542 25.0079 55.8542 25.0079 55.8617 25.0116L56.1979 25.1798H56.5716C56.5716 25.1798 56.5716 25.1798 56.5753 25.1798C57.3002 25.1798 57.6663 24.765 58.0213 24.3615C58.1745 24.1896 58.3762 23.958 58.5817 23.7189C58.6639 23.6255 59.3851 22.7885 59.5308 22.6017C61.4998 20.0871 61.3653 16.8066 59.1945 14.236C58.1558 13.0067 56.9639 12.3603 55.4955 11.7625C52.7343 10.6416 50.0815 9.9728 47.6118 9.77851C44.7908 9.55432 42.3547 9.36377 40.3072 9.36377Z" fill="#007BC2"/>
</g>
<g id="Group_3">
<path id="Vector_5" d="M31.3661 27.4478C28.1902 27.4478 26.5985 26.368 25.8176 25.4638C23.4114 22.6652 25.0815 18.2899 27.8539 11.0451C28.7096 8.80707 30.0584 6.52415 31.8668 4.25618C32.7822 3.10912 33.664 2.2236 34.9866 1.64073C35.8759 1.24841 36.7764 1.05038 37.6581 1.05038C39.4553 1.05038 41.047 1.89107 42.138 3.42297C42.2352 3.55748 42.6574 4.21508 42.9189 4.62234C43.7783 5.95996 43.9091 6.16546 43.4682 6.62877C43.4121 6.68855 37.7254 12.6779 37.7254 12.6779L35.3603 11.3702C33.5033 13.6531 32.7672 15.0393 32.416 17.6996L34.8447 18.5179L33.0251 27.3693L32.4235 27.4104C32.0611 27.4366 31.7061 27.4478 31.3661 27.4478Z" fill="white"/>
<path id="Vector_6" d="M37.6582 1.84625C39.1303 1.84625 40.5016 2.49638 41.4917 3.88257C41.6337 4.08433 42.9115 6.06087 42.8966 6.07955L37.576 11.6841L35.1698 10.3539C32.7486 13.2608 31.9079 14.8301 31.553 18.2451L33.9256 19.0447L32.3675 26.6183C32.0126 26.6407 31.68 26.6519 31.3662 26.6519C28.123 26.6519 26.8601 25.4563 26.423 24.9444C24.3231 22.5046 25.9597 18.2339 28.6013 11.3254C29.5055 8.96402 30.9215 6.71847 32.4946 4.7494C33.3128 3.72564 34.0937 2.90364 35.3118 2.36561C36.0927 2.0256 36.8885 1.84625 37.6582 1.84625ZM37.6582 0.258301C36.6643 0.258301 35.6593 0.478746 34.6654 0.9159C33.1933 1.56229 32.233 2.52253 31.2466 3.76301C29.3896 6.09449 27.996 8.4484 27.1142 10.7612C25.7542 14.3182 24.6818 17.1242 24.1774 19.4819C23.7888 21.3015 23.475 23.958 25.2161 25.9831C26.1016 27.0144 27.8876 28.2436 31.3662 28.2436C31.7249 28.2436 32.0985 28.2287 32.4759 28.2063L33.679 28.1241L33.9218 26.9434L35.4799 19.3698L35.7639 17.9948L34.4337 17.5464L33.3053 17.1653C33.6379 15.2785 34.2619 14.0679 35.5658 12.3977L36.8063 13.0852L37.8824 13.6793L38.7268 12.79C44.0511 7.18177 44.0511 7.18177 44.0549 7.17804C44.903 6.28505 44.2828 5.29491 44.0511 4.92501C43.9278 4.73072 43.7634 4.46918 43.5916 4.2039C43.5654 4.1628 42.9265 3.16892 42.7882 2.9709C41.544 1.21855 39.7207 0.258301 37.6582 0.258301Z" fill="#007BC2"/>
</g>
<g id="Group_4">
<path id="Vector_7" d="M33.7013 36.5195C30.701 36.5195 27.4093 33.7247 22.4324 29.4915C20.6054 27.9409 18.9016 25.9083 17.3659 23.4498C16.5888 22.2056 16.047 21.0809 15.9386 19.6387C15.7107 16.6309 17.2651 14.2733 19.9963 13.4886C20.0188 13.4812 22.481 12.8647 22.75 12.8647H23.2358L23.4599 13.2981L23.4487 13.3055C23.6841 13.7315 24.4015 15.1401 26.9759 20.1842L27.2561 20.7297L25.2347 22.5269C26.7704 25.0377 27.8315 26.1922 30.2228 27.4103L31.8032 25.3927L39.545 30.0556L39.3843 30.6385C38.3531 34.3525 36.6231 35.7237 35.3528 36.2169C34.8297 36.4149 34.273 36.5195 33.7013 36.5195Z" fill="white"/>
<path id="Vector_8" d="M22.7538 13.653C22.7575 13.653 26.2697 20.5391 26.2697 20.5391L24.2147 22.3662C26.1501 25.6168 27.3495 26.932 30.4507 28.4004L31.9938 26.4314L38.6184 30.4218C37.5498 34.2777 35.7526 35.2043 35.0651 35.4734C34.6242 35.6452 34.1721 35.7274 33.7013 35.7274C30.9925 35.7274 27.7493 32.9737 22.9443 28.8899C21.0164 27.2534 19.3724 25.1685 18.0385 23.0313C17.3435 21.9178 16.8317 20.909 16.7308 19.5789C16.544 17.0979 17.7247 14.9682 20.2168 14.2508C20.4522 14.1798 22.6679 13.653 22.7538 13.653ZM22.7538 12.0651C22.3166 12.0651 19.8021 12.7152 19.7797 12.7227C16.7121 13.6044 14.8925 16.3432 15.1503 19.6984C15.2736 21.3013 15.8565 22.5269 16.6972 23.872C18.2739 26.394 20.03 28.4901 21.9168 30.0967C27.0282 34.4421 30.4059 37.3154 33.7013 37.3154C34.3701 37.3154 35.024 37.1921 35.6405 36.953C37.079 36.3925 39.0294 34.8793 40.1503 30.8477L40.4716 29.6857L39.4366 29.0618L32.8121 25.0713L31.609 24.3465L30.7421 25.4524L30.0061 26.3903C28.3397 25.4487 27.4056 24.4586 26.2622 22.6689L27.3234 21.7273L28.2425 20.9128L27.6858 19.818C24.7378 14.0453 24.2558 13.1 24.1699 12.9356L23.729 12.0688L22.7538 12.0651Z" fill="#007BC2"/>
</g>
<g id="Group_5">
<path id="Vector_9" d="M28.2687 43.686C27.6448 43.686 27.0582 43.6038 26.4641 43.4394C23.5609 42.6248 21.8758 40.3569 22.0739 37.521C22.0851 37.3566 22.1747 36.5794 22.2308 36.0974C22.4176 34.5207 22.4475 34.2778 23.0827 34.1993C23.1387 34.1919 31.3624 33.1793 31.3624 33.1793L32.3601 35.6901C35.2445 35.1073 36.6942 34.5057 38.6558 32.6749L37.3033 30.5003L44.3351 24.8211L44.8246 25.1723C47.9631 27.4141 48.6581 29.5065 48.6842 30.8702C48.7664 34.5618 44.6938 36.8746 37.9497 40.7081C35.8648 41.8925 33.3726 42.7967 30.5367 43.3983C29.8754 43.544 29.087 43.686 28.2687 43.686Z" fill="white"/>
<path id="Vector_10" d="M44.3612 25.8224C47.6193 28.1464 47.8734 30.1528 47.8921 30.8926C47.9631 34.1096 43.9876 36.3701 37.5573 40.0243C35.3566 41.276 32.8346 42.1054 30.3723 42.6285C29.64 42.7855 28.9599 42.8938 28.2725 42.8938C27.7531 42.8938 27.2337 42.8303 26.6845 42.6771C24.2858 42.0046 22.6903 40.1663 22.8734 37.577C22.8921 37.3304 23.1648 34.9914 23.1835 34.9877L30.8543 34.0424L31.8668 36.5981C35.5845 35.8919 37.2285 35.2156 39.6721 32.8019L38.3494 30.6759L44.3612 25.8224ZM44.3015 23.8272L43.3636 24.5857L37.3481 29.4429L36.2533 30.3247L36.9969 31.5166L37.6246 32.5292C36.1711 33.7734 34.9194 34.3114 32.8495 34.7747L32.3264 33.4558L31.8743 32.3125L30.6563 32.4619L22.9855 33.4072C21.7525 33.5604 21.6068 34.7149 21.5507 35.1521C21.5209 35.38 21.4835 35.6864 21.4461 36.0002C21.4387 36.0488 21.3004 37.2183 21.2855 37.4612C21.065 40.6445 23.0154 43.2899 26.2548 44.2015C26.9162 44.3884 27.5775 44.478 28.2725 44.478C29.1617 44.478 30.0024 44.3249 30.7011 44.1754C33.6155 43.5589 36.1861 42.6211 38.342 41.3993C41.6524 39.5162 44.2641 38.0328 46.1509 36.5308C47.6081 35.3725 49.5398 33.5193 49.4801 30.8515C49.4464 29.3084 48.6917 26.9545 45.2841 24.5259L44.3015 23.8272Z" fill="#007BC2"/>
</g>
<g id="Group_6">
<path id="Vector_11" d="M32.9317 25.5346L34.9642 18.7868L42.011 18.6373L44.3313 25.288L38.7193 29.5512L32.9317 25.5346Z" fill="white"/>
<path id="Vector_12" d="M41.4507 19.4444L43.3898 25.0078L38.697 28.5723L33.8584 25.2133L35.5584 19.5714L41.4507 19.4444ZM42.5678 17.8303L41.4133 17.8564L35.5248 17.9835L34.3702 18.0096L34.0377 19.1156L32.3377 24.7575L32.0051 25.8635L32.9542 26.5211L37.7928 29.8801L38.7418 30.5376L39.6609 29.839L44.3538 26.2745L45.273 25.5758L44.8918 24.4847L42.9527 18.9213L42.5678 17.8303Z" fill="#007BC2"/>
</g>
<g id="Group_7">
<path id="Vector_13" d="M73.3366 67.0121C73.09 67.0121 72.9294 67.0084 72.6342 66.9934H72.2867C70.5755 66.9934 69.0734 66.0519 68.3075 64.6171C66.7868 66.0668 64.7467 66.9038 62.6208 66.9038C59.4934 66.9038 56.7696 65.1477 55.3797 62.5733V66.8814H50.6158V54.7232L50.0367 54.7158V66.8851H40.5799V63.7391C39.205 65.6371 37.1238 66.8216 34.8372 66.8216C32.5057 66.8216 30.3834 65.5848 29.0122 63.6195C27.4578 65.6857 25.0329 66.9038 22.4362 66.9038C19.944 66.9038 17.6349 65.753 16.103 63.9035V66.8851H10.7526L9.95672 66.8888H6.0597V66.9H1.29584V54.3197C1.29584 51.8276 3.32468 49.795 5.82057 49.795H6.23157C7.11335 49.795 7.96898 50.0528 8.70131 50.531C9.43363 50.0528 10.2855 49.795 11.1673 49.795H11.5783C13.6595 49.795 15.4155 51.2073 15.9424 53.1241C17.4668 51.099 19.8917 49.8249 22.5146 49.8249C25.0442 49.8249 27.3981 50.9645 28.9711 52.9559L29.0682 53.0792C30.4507 51.084 32.5542 49.8249 34.8147 49.8249C37.1799 49.8249 39.3432 51.0541 40.7369 53.1502C41.2525 51.2223 43.0161 49.7987 45.1047 49.7987H45.5194C45.9192 49.7987 46.319 49.851 46.7001 49.9556V49.9183L59.3141 49.9631V50.5086C60.3528 50.0491 61.4774 49.8099 62.6282 49.8099C64.5188 49.8099 66.3123 50.4488 67.7545 51.5996L67.7881 49.9033H72.5371V62.2259H72.821H72.8434C73.0676 62.2371 73.1722 62.2408 73.3516 62.2408L74.7154 62.2371V67.0047L73.3366 67.0121ZM59.7849 60.6528C60.42 61.5608 61.4737 62.1399 62.6208 62.1399C63.7529 62.1399 64.8103 61.5869 65.4641 60.6528H59.7849ZM19.5965 60.6528C20.2317 61.5608 21.2854 62.1399 22.4324 62.1399C23.5646 62.1399 24.6219 61.5869 25.2758 60.6528H19.5965ZM32.756 60.6528C33.2455 61.501 34.0039 62.0577 34.8334 62.0577C35.6592 62.0577 36.4289 61.5234 36.9221 60.6528H32.756ZM27.8875 61.3628C27.8128 61.1311 27.7455 60.8957 27.6858 60.6566H26.8264L27.8875 61.3628ZM67.7657 61.1535V60.6528H67.0147L67.7657 61.1535ZM40.5762 55.889V55.0707L39.2311 55.889H40.5762ZM36.7315 55.889C36.2308 55.1828 35.5433 54.7718 34.8372 54.7718C34.0862 54.7718 33.4099 55.2015 32.9279 55.889H36.7315ZM27.7605 55.889C27.8651 55.5079 27.9921 55.1417 28.1379 54.7868L27.0468 55.889H27.7605ZM24.4725 55.889C23.8859 55.4593 23.176 55.2239 22.4324 55.2239C21.6852 55.2239 20.979 55.463 20.3961 55.889H24.4725ZM67.6574 55.8329L67.6723 55.067L66.7009 55.8329H67.6574ZM65.2848 55.8329C64.5749 54.9512 64.0406 54.5813 62.7067 54.5813H62.6282C61.5297 54.5925 60.7899 55.0633 60.1846 55.8292H65.2848V55.8329ZM55.3797 54.7942C55.3909 54.7718 55.4021 54.7494 55.4133 54.7307H55.3797V54.7942Z" fill="white"/>
<path id="Vector_14" d="M45.512 50.5946C46.2368 50.5946 46.9131 50.8076 47.4885 51.1662V50.7216L58.5108 50.759V51.8537C59.6877 51.0691 61.1001 50.6095 62.6208 50.6095C64.9074 50.6095 67.0334 51.6408 68.4532 53.438L65.9611 55.407C65.1615 54.3945 64.4292 53.7892 62.7067 53.7892C62.6768 53.7892 62.6507 53.7892 62.6208 53.7892C60.4985 53.8153 59.4635 55.2875 58.7462 56.6288H68.4383L68.5616 50.7029H71.7375V62.4725C71.7375 62.7751 71.9841 63.0217 72.2867 63.0217L72.7911 63.0255C73.0377 63.0404 73.1461 63.0404 73.3441 63.0404C73.3964 63.0404 73.4562 63.0404 73.5272 63.0404H73.912V66.2163H73.5347C73.46 66.2163 73.3927 66.2163 73.3329 66.2163C73.0975 66.2163 72.9443 66.2126 72.6529 66.1976H72.283C70.4335 66.1976 68.8979 64.8413 68.6064 63.0703C67.2053 64.9758 64.9933 66.108 62.6133 66.108C58.5182 66.108 55.1854 62.7751 55.1854 58.6801C55.1854 56.8754 55.8318 55.2239 56.9041 53.9349H54.5764V66.0855H51.4005V53.9349L49.211 53.9125C49.2259 54.047 49.2334 54.1815 49.2334 54.3197V66.0893H46.0537V59.857H44.5405V66.0893H41.3646V59.857H41.3347C40.7444 63.3692 38.0542 66.0258 34.826 66.0258C31.6015 66.0258 28.915 63.3655 28.3247 59.857H18.3486C18.8605 61.6318 20.497 62.932 22.4324 62.932C23.856 62.932 25.1787 62.2221 25.9745 61.0377L28.6161 62.8013C27.2299 64.8712 24.9209 66.108 22.4324 66.108C19.0548 66.108 16.2039 63.84 15.3035 60.7463V66.0893H12.1276V54.3197C12.1276 54.0134 11.881 53.7668 11.5746 53.7668H11.1636C10.8572 53.7668 10.6106 54.0134 10.6106 54.3197V66.0893H9.95673V66.093H6.77709V54.3197C6.77709 54.0134 6.53049 53.7668 6.22784 53.7668H5.81684C5.51046 53.7668 5.26386 54.0134 5.26386 54.3197V66.1042H2.08795V54.3197C2.08795 52.261 3.75811 50.5909 5.81684 50.5909H6.22784C7.17688 50.5909 8.03998 50.9458 8.69758 51.5287C9.35518 50.9458 10.2183 50.5909 11.1636 50.5909H11.5746C13.6296 50.5909 15.3035 52.261 15.3035 54.3197L15.3819 55.9787C16.2824 52.885 19.1332 50.617 22.5109 50.617C24.7976 50.617 26.9236 51.6482 28.3434 53.4454L25.7728 56.0459C24.9582 55.0184 23.7402 54.4281 22.4324 54.4281C20.8109 54.4281 19.3985 55.3398 18.6811 56.6811H28.3882C29.072 53.3147 31.6725 50.617 34.811 50.617C37.1276 50.617 39.2349 51.9621 40.4492 54.2189L37.6731 55.904C37.0229 54.6971 35.9618 53.976 34.8334 53.976C32.9316 53.976 31.3848 55.9637 31.3848 58.411C31.3848 60.8584 32.9316 62.8498 34.8334 62.8498C36.3467 62.8498 37.632 61.5982 38.0953 59.857H32.2852V56.6811H41.3721V54.3197C41.3721 52.261 43.0422 50.5909 45.0972 50.5909H45.512M44.548 56.6849H46.0612V54.9736C46.0612 54.6672 45.8146 54.4206 45.512 54.4206H45.0972C44.7946 54.4206 44.548 54.6672 44.548 54.9736V56.6849ZM62.6208 62.9358C64.0443 62.9358 65.367 62.2259 66.1628 61.0414L68.569 62.6481C68.5653 62.5883 68.5616 62.5323 68.5616 62.4725V59.8608H58.5369C59.0488 61.6355 60.6853 62.9358 62.6208 62.9358ZM45.512 49.0029H45.0972C43.1581 49.0029 41.458 50.0491 40.5276 51.6071C39.0219 49.9669 36.9931 49.0328 34.8073 49.0328C32.6028 49.0328 30.5404 50.0939 29.0346 51.8276C27.3346 50.0416 25.0031 49.0328 22.5109 49.0328C20.0898 49.0328 17.8293 50.0192 16.174 51.6557C15.2512 50.0715 13.5362 49.0066 11.5746 49.0066H11.1636C10.2967 49.0066 9.45232 49.2196 8.69758 49.6157C7.94283 49.2196 7.09468 49.0066 6.22784 49.0066H5.81684C2.8838 49.0066 0.5 51.3904 0.5 54.3235V66.108V67.6959H2.08795H5.26386H6.85182V67.6847H9.95673H11.5447V67.681H12.1986H15.3035H16.8914V66.093V65.7792C18.442 66.9897 20.3812 67.6996 22.4324 67.6996C24.9358 67.6996 27.2972 66.6647 28.986 64.875C30.488 66.5787 32.5692 67.6174 34.8334 67.6174C36.6755 67.6174 38.3979 66.9337 39.7841 65.7605V66.093V67.681H41.3721H44.548H46.1359H49.2408H50.8288V67.6772H51.4079H54.5838H56.1718V66.0893V64.9796C57.8083 66.6572 60.095 67.6996 62.6208 67.6996C64.6347 67.6996 66.5776 67.0159 68.1431 65.8053C69.122 67.0271 70.6203 67.7893 72.2867 67.7893H72.6118C72.9144 67.8043 73.09 67.808 73.3329 67.808H73.4263H73.5347H73.9158L75.5 67.8043V66.22V63.0441V61.4524L73.9083 61.4562H73.5235H73.4824H73.3441C73.3366 61.4562 73.3329 61.4562 73.3254 61.4562V50.7067V49.1187H71.7375H68.5616H67.0072L66.9848 50.1462C65.6696 49.4176 64.1751 49.0253 62.6245 49.0253C61.7651 49.0253 60.917 49.1486 60.1062 49.384V49.1785L58.522 49.1748L47.4997 49.1374L46.6478 49.1337C46.2742 49.044 45.8931 49.0029 45.512 49.0029Z" fill="#067DC2"/>
</g>
</g>
</svg>
