<?xml version="1.0" encoding="utf-8"?>
<!-- Generator: Adobe Illustrator 26.0.1, SVG Export Plug-In . SVG Version: 6.00 Build 0)  -->
<svg version="1.1" id="Layer_1" xmlns="http://www.w3.org/2000/svg" xmlns:xlink="http://www.w3.org/1999/xlink" x="0px" y="0px"
	 viewBox="0 0 190.1 172.2" style="enable-background:new 0 0 190.1 172.2;" xml:space="preserve">
<style type="text/css">
	.st0{fill:#FFFFFF;}
	.st1{fill:#007BC2;}
</style>
<g>
	<g>
		<path class="st0" d="M129.5,165.1c-2.9,0-5.7-0.6-8.6-1.9c-0.6-0.2-3.1-1.5-4.8-2.3c-5.2-2.6-6-3-5.5-5.3h0
			c0.3-1.4,1.4-6.6,6.2-27.9l0.5-2.2l10-0.3c1.5-10.7,1.3-16.5-2.7-25.6l-9.2,2l-11-31.4l1.8-1.3c6.9-4.8,13.3-7.2,19-7.2
			c2,0,3.8,0.3,5.5,0.9c12.9,4.3,15.9,21.3,20.9,49.5c1.5,8.7,1.6,18.5,0.2,29.1c-0.7,5.4-1.8,9.8-4.9,14.2
			C142.4,161.6,136.2,165.1,129.5,165.1L129.5,165.1z"/>
		<path class="st1" d="M125.3,64.7c2.1,0,3.7,0.4,4.6,0.7c11.3,3.7,14.2,20.3,18.9,47.2c1.6,9.2,1.4,19,0.1,28.2
			c-0.6,4.8-1.6,8.9-4.4,12.9c-3.8,5.3-9.1,8.5-15.1,8.5c-2.4,0-4.9-0.5-7.4-1.6c-0.8-0.4-8.6-4.2-8.6-4.3l6.2-27.8l10.1-0.3
			c2.2-13.8,1.8-20.3-3.5-31.8l-9,2l-9.4-26.9C115.7,65.9,121.4,64.7,125.3,64.7 M125.3,58.8c-6.4,0-13.3,2.6-20.7,7.7l-3.7,2.5
			l1.5,4.2l9.4,26.9l1.7,4.9l5.1-1.1l4.3-0.9c2.5,6.6,2.8,11.6,1.9,19.4l-5.2,0.2l-4.5,0.2l-1,4.4c-5.2,23.3-6.1,27.1-6.2,27.8l0,0
			c-1,4.5,2.8,6.4,4.3,7.1c0.8,0.4,1.8,0.9,2.8,1.4c0.2,0.1,4,2,4.9,2.4c3.2,1.4,6.5,2.1,9.7,2.1c7.6,0,14.9-4,19.8-11
			c3.4-4.8,4.7-9.7,5.4-15.5c1.5-10.9,1.4-21-0.2-30c-2.4-13.8-4.4-24.7-7.2-33.1c-2.2-6.5-6.3-15.5-15.6-18.6
			C129.7,59.2,127.5,58.8,125.3,58.8L125.3,58.8z"/>
	</g>
	<g>
		<path class="st0" d="M162.8,93.1l-0.5-0.2c-0.1-0.1-0.1-0.1-25.6-13.1l-2-1l2.1-9.7c-6.9-2.9-12.1-4.4-18.1-4.4
			c-2.2,0-4.6,0.2-7.4,0.6l-0.4,9.4l-33.2,2.8l-0.8-2.1c-4.9-13.3-2.7-21.2,0-25.4c5.3-8.3,16.3-9.4,26.4-9.4
			c7.4,0,16.4,0.7,26.7,1.5c8.8,0.7,18.3,3.1,28.2,7.1c5,2,9.1,4.2,12.5,8.3c7.2,8.5,7.6,18.9,1.2,27.1c-6.6,8.4-7.5,8.4-8.6,8.4
			L162.8,93.1L162.8,93.1z"/>
		<path class="st1" d="M103.5,43.6c7.3,0,16.2,0.7,26.5,1.5c9.3,0.7,18.7,3.4,27.3,6.9c4.5,1.8,8.2,3.7,11.4,7.5
			c5.9,7,7,15.9,1.1,23.4c-0.6,0.7-6.2,7.3-6.3,7.3l0,0l-25.4-13l2.2-9.9c-8.8-3.8-14.6-5.6-21.5-5.6c-3.1,0-6.3,0.4-10.2,1.1
			l-0.3,9.2l-28.4,2.4c-5.1-13.8-1.8-20.5-0.3-22.8C83.5,45.4,91.5,43.6,103.5,43.6 M103.5,37.8c-10.9,0-22.8,1.3-28.9,10.7
			c-3.1,4.8-5.6,13.5-0.3,28l1.5,4.2l4.4-0.4l28.4-2.4l5.2-0.4l0.2-5.2l0.2-4.4c1.6-0.2,3.1-0.3,4.5-0.3c4.4,0,8.5,0.9,14.7,3.3
			l-1.1,5.1l-1,4.4l4,2.1c25.4,13,25.4,13,25.4,13l1.2,0.6h1.4c0,0,0,0,0,0c2.7,0,4-1.5,5.3-3c0.6-0.6,1.3-1.5,2.1-2.4
			c0.3-0.3,3-3.4,3.5-4.1c7.3-9.3,6.8-21.4-1.2-30.8c-3.8-4.5-8.2-6.9-13.6-9.1c-10.2-4.1-20-6.6-29.1-7.3
			C120,38.5,111,37.8,103.5,37.8L103.5,37.8z"/>
	</g>
	<g>
		<path class="st0" d="M70.5,104.4c-11.7,0-17.6-4-20.5-7.3c-8.9-10.3-2.7-26.4,7.5-53.2c3.2-8.3,8.1-16.7,14.8-25
			c3.4-4.2,6.6-7.5,11.5-9.6c3.3-1.4,6.6-2.2,9.8-2.2c6.6,0,12.5,3.1,16.5,8.7c0.4,0.5,1.9,2.9,2.9,4.4c3.2,4.9,3.7,5.7,2,7.4
			C114.9,27.9,93.9,50,93.9,50l-8.7-4.8c-6.8,8.4-9.6,13.5-10.9,23.3l9,3l-6.7,32.6l-2.2,0.2C73.1,104.4,71.7,104.4,70.5,104.4
			L70.5,104.4z"/>
		<path class="st1" d="M93.7,10c5.4,0,10.5,2.4,14.1,7.5c0.5,0.7,5.2,8,5.2,8.1L93.4,46.3l-8.9-4.9c-8.9,10.7-12,16.5-13.3,29.1
			l8.7,2.9l-5.7,27.9c-1.3,0.1-2.5,0.1-3.7,0.1c-12,0-16.6-4.4-18.2-6.3c-7.7-9-1.7-24.7,8-50.2c3.3-8.7,8.6-17,14.4-24.2
			c3-3.8,5.9-6.8,10.4-8.8C87.9,10.7,90.8,10,93.7,10 M93.7,4.2c-3.7,0-7.4,0.8-11,2.4c-5.4,2.4-9,5.9-12.6,10.5
			c-6.8,8.6-12,17.3-15.2,25.8c-5,13.1-9,23.5-10.8,32.1c-1.4,6.7-2.6,16.5,3.8,24c3.3,3.8,9.8,8.3,22.7,8.3c1.3,0,2.7-0.1,4.1-0.1
			l4.4-0.3l0.9-4.4l5.7-27.9l1-5.1l-4.9-1.7l-4.2-1.4c1.2-7,3.5-11.4,8.3-17.6l4.6,2.5l4,2.2l3.1-3.3c19.6-20.7,19.6-20.7,19.6-20.7
			c3.1-3.3,0.8-6.9,0-8.3c-0.5-0.7-1.1-1.7-1.7-2.7c-0.1-0.2-2.5-3.8-3-4.5C108,7.7,101.3,4.2,93.7,4.2L93.7,4.2z"/>
	</g>
	<g>
		<path class="st0" d="M79.1,137.9c-11.1,0-23.2-10.3-41.5-25.9c-6.7-5.7-13-13.2-18.7-22.3c-2.9-4.6-4.9-8.7-5.3-14
			c-0.8-11.1,4.9-19.8,15-22.7c0.1,0,9.2-2.3,10.2-2.3h1.8l0.8,1.6l0,0c0.9,1.6,3.5,6.8,13,25.4l1,2l-7.5,6.6
			c5.7,9.3,9.6,13.5,18.4,18l5.8-7.4l28.5,17.2l-0.6,2.1c-3.8,13.7-10.2,18.7-14.9,20.6C83.3,137.5,81.2,137.9,79.1,137.9
			L79.1,137.9z"/>
		<path class="st1" d="M38.7,53.6C38.7,53.6,38.8,53.6,38.7,53.6c0,0,13,25.4,13,25.4l-7.6,6.7c7.1,12,11.6,16.8,23,22.2l5.7-7.3
			l24.4,14.7C93.3,129.6,86.7,133,84.1,134c-1.6,0.6-3.3,0.9-5,0.9c-10,0-21.9-10.2-39.7-25.2c-7.1-6-13.2-13.7-18.1-21.6
			c-2.6-4.1-4.4-7.8-4.8-12.7c-0.7-9.1,3.7-17,12.9-19.6C30.3,55.5,38.4,53.6,38.7,53.6 M38.7,47.7L38.7,47.7L38.7,47.7
			c-1.6,0-10.9,2.4-11,2.4c-11.3,3.3-18,13.3-17.1,25.7c0.5,5.9,2.6,10.4,5.7,15.4c5.8,9.3,12.3,17,19.2,22.9
			c18.8,16,31.3,26.6,43.4,26.6c2.5,0,4.9-0.5,7.1-1.3c5.3-2.1,12.5-7.6,16.6-22.5l1.2-4.3l-3.8-2.3L75.8,95.7L71.4,93l-3.2,4.1
			l-2.7,3.5c-6.1-3.5-9.6-7.1-13.8-13.7l3.9-3.5l3.4-3l-2.1-4C46.1,55,44.3,51.5,44,50.9l0,0l-1.6-3.2L38.7,47.7L38.7,47.7
			L38.7,47.7z"/>
	</g>
	<g>
		<path class="st0" d="M59.1,164.3c-2.3,0-4.5-0.3-6.7-0.9c-10.7-3-16.9-11.4-16.2-21.8c0-0.6,0.4-3.5,0.6-5.2
			c0.7-5.8,0.8-6.7,3.1-7c0.2,0,30.5-3.8,30.5-3.8l3.7,9.3c10.6-2.1,16-4.4,23.2-11.1l-5-8l25.9-20.9l1.8,1.3
			c11.6,8.3,14.1,16,14.2,21c0.3,13.6-14.7,22.1-39.6,36.3c-7.7,4.4-16.9,7.7-27.3,9.9C65,163.8,62.1,164.3,59.1,164.3z"/>
		<path class="st1" d="M118.4,98.4c12,8.6,12.9,16,13,18.7c0.3,11.9-14.4,20.2-38.1,33.7c-8.1,4.6-17.4,7.7-26.5,9.6
			c-2.7,0.6-5.2,1-7.7,1c-1.9,0-3.8-0.2-5.9-0.8c-8.8-2.5-14.7-9.3-14-18.8c0.1-0.9,1.1-9.5,1.1-9.5l28.3-3.5l3.7,9.4
			c13.7-2.6,19.8-5.1,28.8-14l-4.9-7.8L118.4,98.4 M118.2,91.1l-3.5,2.8l-22.2,17.9l-4,3.3l2.7,4.4l2.3,3.7
			c-5.4,4.6-10,6.6-17.6,8.3l-1.9-4.9l-1.7-4.2l-4.5,0.6l-28.3,3.5c-4.5,0.6-5.1,4.8-5.3,6.4c-0.1,0.8-0.2,2-0.4,3.1
			c0,0.2-0.5,4.5-0.6,5.4c-0.8,11.7,6.4,21.5,18.3,24.8c2.4,0.7,4.9,1,7.4,1c3.3,0,6.4-0.6,9-1.1c10.7-2.3,20.2-5.7,28.2-10.2
			c12.2-6.9,21.8-12.4,28.8-17.9c5.4-4.3,12.5-11.1,12.3-20.9c-0.1-5.7-2.9-14.4-15.5-23.3L118.2,91.1L118.2,91.1z"/>
	</g>
	<g>
		<polygon class="st0" points="76.3,97.4 83.8,72.5 109.7,71.9 118.3,96.5 97.6,112.2 		"/>
		<path class="st1" d="M107.7,74.9l7.1,20.5l-17.3,13.1L79.7,96.2l6.3-20.8L107.7,74.9 M111.8,69l-4.3,0.1l-21.7,0.5l-4.3,0.1
			l-1.2,4.1l-6.3,20.8l-1.2,4.1l3.5,2.4l17.8,12.4l3.5,2.4l3.4-2.6l17.3-13.1l3.4-2.6l-1.4-4L113.2,73L111.8,69L111.8,69z"/>
	</g>
</g>
</svg>
