<svg width="17" height="17" viewBox="0 0 17 17" fill="none" xmlns="http://www.w3.org/2000/svg">
<path d="M5.88652 15.3524L0 17L1.64822 11.1158L12.4271 0.393426C12.5489 0.268882 12.6945 0.169923 12.855 0.102363C13.0156 0.0348019 13.1882 0 13.3624 0C13.5366 0 13.7092 0.0348019 13.8698 0.102363C14.0303 0.169923 14.1759 0.268882 14.2977 0.393426L16.6131 2.72096C16.7356 2.84252 16.833 2.98715 16.8994 3.14649C16.9659 3.30583 17 3.47675 17 3.64936C17 3.82198 16.9659 3.9929 16.8994 4.15224C16.833 4.31159 16.7356 4.45621 16.6131 4.57777L5.88652 15.3524Z" fill="white"/>
</svg>
